<svg aria-hidden="true" style="position:absolute;width:0;height:0;overflow:hidden" xmlns="http://www.w3.org/2000/svg"><defs><symbol id="icon-box-empty" viewBox="0 0 32 32"><path d="M28.454 4.33v23.34H3.557V4.33h24.897zm0-3.335H3.557C1.6.995 0 2.496 0 4.33v23.34c0 1.835 1.601 3.335 3.557 3.335h24.897c1.957 0 3.557-1.501 3.557-3.335V4.33c0-1.835-1.601-3.335-3.557-3.335z"/></symbol><symbol id="icon-modal-email" viewBox="0 0 32 32"><path d="M26.671 5.334H5.334a2.663 2.663 0 0 0-2.653 2.667l-.014 16.003c0 1.467 1.2 2.667 2.667 2.667h21.337c1.467 0 2.667-1.2 2.667-2.667V8.001c0-1.467-1.2-2.667-2.667-2.667zm-.534 5.669-9.427 5.893a1.343 1.343 0 0 1-1.421-.004l.006.003-9.427-5.893a1.133 1.133 0 1 1 1.205-1.918l-.004-.003 8.935 5.587 8.935-5.588a1.133 1.133 0 1 1 1.206 1.918l-.005.003z"/></symbol><symbol id="icon-mark" viewBox="0 0 32 32"><path fill="#fff" style="fill:var(--color1, #fff);stroke:var(--color1, #fff)" stroke="#fff" stroke-width=".492" d="m4.818 15.389-.17-.162-.17.16-2.373 2.25.187.18 8.777 8.371.17-.163L29.902 8.222l-.187-.177-2.341-2.233-.17.162L11.07 21.352l-6.251-5.963z"/></symbol><symbol id="icon-modal-person" viewBox="0 0 32 32"><path d="M16.003 16.003a5.334 5.334 0 1 0 0-10.668 5.334 5.334 0 1 0 0 10.668zm0 2.667c-3.561 0-10.668 1.787-10.668 5.334v1.334c0 .733.599 1.334 1.334 1.334h18.67c.733 0 1.334-.601 1.334-1.334v-1.334c0-3.547-7.109-5.334-10.668-5.334z"/></symbol><symbol id="icon-modal-phone" viewBox="0 0 32 32"><path d="m24.886 19.777-3.268-.373a2.556 2.556 0 0 0-2.111.732l-2.368 2.368c-3.67-1.894-6.586-4.811-8.429-8.373l-.051-.108 2.383-2.377a2.555 2.555 0 0 0 .731-2.123l.001.012-.373-3.243a2.578 2.578 0 0 0-2.557-2.276H6.615c-1.454 0-2.664 1.209-2.575 2.662.683 10.988 9.472 19.765 20.448 20.448 1.453.089 2.664-1.12 2.664-2.575v-2.238a2.55 2.55 0 0 0-2.253-2.533l-.012-.001z"/></symbol></defs></svg>